<svg width="54" height="54" viewBox="0 0 54 54" fill="none" xmlns="http://www.w3.org/2000/svg">
<g clip-path="url(#clip0_126_50)">
<path fill-rule="evenodd" clip-rule="evenodd" d="M45.7688 26.1907L33.3281 38.93C30.0098 42.328 24.565 42.3926 21.167 39.0742C21.1184 39.0267 21.0703 38.9786 21.0228 38.93L20.8874 38.7913C17.5413 35.3649 17.5413 29.8944 20.8874 26.468L33.3281 13.7287C36.6465 10.3307 42.0912 10.2661 45.4892 13.5845C45.5379 13.632 45.586 13.6801 45.6334 13.7287L45.7688 13.8673C49.1149 17.2937 49.1149 22.7643 45.7688 26.1907Z" fill="#1ABCFE"/>
<path fill-rule="evenodd" clip-rule="evenodd" d="M21.0127 38.93L8.70737 26.3293C5.286 22.8259 5.286 17.2322 8.70737 13.7287C12.0257 10.3307 17.4705 10.2661 20.8685 13.5845C20.9171 13.632 20.9652 13.6801 21.0127 13.7287L33.318 26.3293C36.7394 29.8328 36.7394 35.4265 33.318 38.93C29.9996 42.328 24.5549 42.3926 21.1569 39.0742C21.1083 39.0267 21.0602 38.9786 21.0127 38.93Z" fill="#1ABCFE"/>
<path fill-rule="evenodd" clip-rule="evenodd" d="M20.8703 38.7759L14.8745 32.6363L27.1799 20.0356L39.4852 32.6363L33.4894 38.7759C30.0864 42.2606 24.5029 42.3268 21.0182 38.9238C20.9683 38.8751 20.919 38.8258 20.8703 38.7759Z" fill="#00A5E9"/>
</g>
<defs>
<clipPath id="clip0_126_50">
<rect width="43.875" height="32.0625" fill="white" transform="translate(48.9375 43.0313) rotate(-180)"/>
</clipPath>
</defs>
</svg>
